<svg width="31" height="43" viewBox="0 0 31 43" fill="none" xmlns="http://www.w3.org/2000/svg">
<path d="M27.9893 42.5H3.98926C3.19385 42.4992 2.43125 42.1829 1.86881 41.6204C1.30638 41.058 0.990052 40.2954 0.989258 39.5V3.5C0.990052 2.70459 1.30638 1.94199 1.86881 1.37956C2.43125 0.81712 3.19385 0.500794 3.98926 0.5H27.9893C28.7847 0.500794 29.5473 0.81712 30.1097 1.37956C30.6721 1.94199 30.9885 2.70459 30.9893 3.5V28.427L23.4893 24.677L15.9893 28.427V3.5H3.98926V39.5H27.9893V33.5H30.9893V39.5C30.9881 40.2953 30.6716 41.0577 30.1093 41.62C29.5469 42.1824 28.7845 42.4988 27.9893 42.5ZM23.4893 21.323L27.9893 23.573V3.5H18.9893V23.573L23.4893 21.323Z" fill="#F09880"/>
</svg>
