<svg width="25" height="20" viewBox="0 0 25 20" fill="none" xmlns="http://www.w3.org/2000/svg">
<g clip-path="url(#clip0_2490_23197)">
<path d="M8.30006 13.5984C8.21044 13.5984 8.12081 13.6116 8.03531 13.6393C7.54931 13.7972 7.03819 13.8984 6.50006 13.8984C5.96194 13.8984 5.45081 13.7972 4.96444 13.6393C4.87894 13.6116 4.78969 13.5984 4.70006 13.5984C2.37281 13.5984 0.487686 15.4914 0.500061 17.8217C0.505311 18.8064 1.31494 19.5984 2.30006 19.5984H10.7001C11.6852 19.5984 12.4948 18.8064 12.5001 17.8217C12.5124 15.4914 10.6273 13.5984 8.30006 13.5984ZM6.50006 12.3984C8.48831 12.3984 10.1001 10.7867 10.1001 8.79844C10.1001 6.81019 8.48831 5.19844 6.50006 5.19844C4.51181 5.19844 2.90006 6.81019 2.90006 8.79844C2.90006 10.7867 4.51181 12.3984 6.50006 12.3984ZM22.7001 0.398438H8.30006C7.30744 0.398438 6.50006 1.23281 6.50006 2.25806V3.99844C7.37831 3.99844 8.19131 4.25269 8.90006 4.66594V2.79844H22.1001V13.5984H19.7001V11.1984H14.9001V13.5984H12.0411C12.7573 14.2243 13.2831 15.0508 13.5294 15.9984H22.7001C23.6927 15.9984 24.5001 15.1641 24.5001 14.1388V2.25806C24.5001 1.23281 23.6927 0.398438 22.7001 0.398438Z" fill="black"/>
</g>
<defs>
<clipPath id="clip0_2490_23197">
<rect width="24" height="19.2" fill="white" transform="translate(0.5 0.398438)"/>
</clipPath>
</defs>
</svg>
