<svg width="151" height="151" viewBox="0 0 151 151" fill="none" xmlns="http://www.w3.org/2000/svg">
<path opacity="0.2" d="M117.954 89.9879L96.3933 111.549C95.8209 112.121 95.1101 112.535 94.33 112.752C93.5499 112.968 92.7271 112.978 91.9418 112.782L57.9827 104.292C57.3457 104.133 56.7493 103.841 56.2321 103.437L24.2041 78.3924L43.2906 42.4851L73.361 33.7186C74.4351 33.4054 75.5859 33.4868 76.6053 33.9481L96.8604 43.1131H84.7395C84.1239 43.1131 83.5144 43.2343 82.9457 43.4699C82.3769 43.7054 81.8602 44.0507 81.4249 44.486L58.4946 67.4163C58.0197 67.8911 57.6524 68.4625 57.4176 69.0917C57.1827 69.7209 57.0858 70.3932 57.1334 71.0631C57.181 71.733 57.372 72.3848 57.6935 72.9745C58.015 73.5642 58.4594 74.0779 58.9966 74.4808L62.1729 76.863C65.4184 79.2971 69.3659 80.6129 73.4229 80.6129C77.4798 80.6129 81.4273 79.2971 84.6729 76.863L92.1729 71.238L117.954 89.9879Z" fill="#4364F7"/>
<path d="M141.812 71.7786L127.329 79.0201L108.579 43.1128L123.21 35.7976C124.309 35.248 125.58 35.1521 126.749 35.5304C127.918 35.9088 128.892 36.7312 129.461 37.8205L143.871 65.4163C144.159 65.9681 144.334 66.5718 144.387 67.1921C144.439 67.8124 144.367 68.4369 144.176 69.0292C143.984 69.6215 143.676 70.1696 143.27 70.6417C142.865 71.1137 142.369 71.5002 141.812 71.7786V71.7786Z" stroke="#4364F7" stroke-width="7.49999" stroke-linecap="round" stroke-linejoin="round"/>
<path d="M24.2031 78.399L9.72009 71.1576C9.16331 70.8792 8.66755 70.4927 8.26175 70.0206C7.85595 69.5486 7.54825 69.0004 7.35659 68.4081C7.16494 67.8159 7.09317 67.1913 7.14549 66.571C7.1978 65.9507 7.37314 65.3471 7.66128 64.7953L22.0712 37.1995C22.64 36.1101 23.6139 35.2877 24.7832 34.9093C25.9524 34.531 27.2235 34.6269 28.3226 35.1765L42.9531 42.4917L24.2031 78.399Z" stroke="#4364F7" stroke-width="7.49999" stroke-linecap="round" stroke-linejoin="round"/>
<path d="M127.329 79.0089L117.954 89.9764L96.3933 111.537C95.8209 112.11 95.1101 112.524 94.33 112.74C93.5499 112.956 92.7271 112.966 91.9418 112.77L57.9827 104.28C57.3457 104.121 56.7493 103.83 56.2321 103.425L24.2041 78.3809" stroke="#4364F7" stroke-width="7.49999" stroke-linecap="round" stroke-linejoin="round"/>
<path d="M117.95 89.9901L92.1684 71.2401L84.6684 76.8651C81.4228 79.2993 77.4753 80.6151 73.4184 80.6151C69.3615 80.6151 65.414 79.2993 62.1684 76.8651L58.9922 74.483C58.4549 74.08 58.0105 73.5663 57.689 72.9767C57.3676 72.387 57.1766 71.7352 57.129 71.0653C57.0814 70.3954 57.1783 69.7231 57.4131 69.0939C57.6479 68.4647 58.0152 67.8933 58.4901 67.4184L81.4205 44.4882C81.8557 44.0529 82.3725 43.7076 82.9412 43.472C83.5099 43.2365 84.1195 43.1152 84.735 43.1152H108.575" stroke="#4364F7" stroke-width="7.49999" stroke-linecap="round" stroke-linejoin="round"/>
<path d="M43.293 42.4851L73.3633 33.7186C74.4375 33.4054 75.5882 33.4868 76.6076 33.9481L96.8627 43.1131" stroke="#4364F7" stroke-width="7.49999" stroke-linecap="round" stroke-linejoin="round"/>
<path d="M66.3906 125.14L48.7308 120.725C48.0142 120.545 47.35 120.199 46.7925 119.715L33.5781 108.229" stroke="#4364F7" stroke-width="7.49999" stroke-linecap="round" stroke-linejoin="round"/>
</svg>
