<svg width="25" height="24" viewBox="0 0 25 24" fill="none" xmlns="http://www.w3.org/2000/svg">
<path d="M7.68866 4.89844C7.86703 4.89853 8.04213 4.94633 8.19581 5.03688C8.34949 5.12744 8.47615 5.25745 8.56266 5.41344L9.78616 7.61644C9.86501 7.75854 9.90805 7.91773 9.91153 8.08021C9.91502 8.2427 9.87885 8.40358 9.80616 8.54894L8.62766 10.9059C8.62766 10.9059 8.96916 12.6614 10.3982 14.0909C11.8277 15.5199 13.5772 15.8559 13.5772 15.8559L15.9342 14.6774C16.0796 14.6047 16.2406 14.5684 16.4031 14.5719C16.5657 14.5754 16.725 14.6185 16.8672 14.6974L19.0772 15.9264C19.2329 16.0131 19.3626 16.1399 19.4529 16.2936C19.5431 16.4472 19.5907 16.6222 19.5907 16.8004V19.3369C19.5907 20.6289 18.3907 21.5619 17.1667 21.1489C14.6527 20.3009 10.7507 18.6854 8.27666 16.2124C5.80366 13.7389 4.18866 9.83644 3.34016 7.32244C2.92716 6.09844 3.86016 4.89844 5.15216 4.89844H7.68866Z" fill="black" stroke="black" stroke-width="2" stroke-linejoin="round"/>
<path d="M20 7.5H14V2.5H20V4L22.5 3V7L20 6V7.5Z" fill="black" stroke="black" stroke-width="2" stroke-linecap="round" stroke-linejoin="round"/>
</svg>
