<svg width="151" height="151" viewBox="0 0 151 151" fill="none" xmlns="http://www.w3.org/2000/svg">
<path opacity="0.2" d="M127.436 29.0469H24.3105C23.0673 29.0469 21.8751 29.5407 20.996 30.4198C20.1169 31.2989 19.623 32.4912 19.623 33.7344V118.109C19.623 119.352 20.1169 120.545 20.996 121.424C21.8751 122.303 23.0673 122.797 24.3105 122.797H127.436C128.679 122.797 129.871 122.303 130.75 121.424C131.629 120.545 132.123 119.352 132.123 118.109V33.7344C132.123 32.4912 131.629 31.2989 130.75 30.4198C129.871 29.5407 128.679 29.0469 127.436 29.0469ZM54.8382 85.2967C52.0569 85.2967 49.338 84.4719 47.0255 82.9267C44.7129 81.3815 42.9105 79.1853 41.8461 76.6157C40.7817 74.0461 40.5033 71.2186 41.0459 68.4908C41.5885 65.7629 42.9278 63.2572 44.8945 61.2906C46.8611 59.3239 49.3668 57.9846 52.0947 57.442C54.8226 56.8994 57.6501 57.1779 60.2196 58.2422C62.7892 59.3066 64.9855 61.109 66.5307 63.4216C68.0759 65.7341 68.9007 68.4529 68.9007 71.2342C68.9007 73.0809 68.5369 74.9096 67.8302 76.6157C67.1235 78.3218 66.0877 79.8721 64.7819 81.1779C63.476 82.4837 61.9258 83.5196 60.2197 84.2263C58.5135 84.933 56.6849 85.2967 54.8382 85.2967Z" fill="#4364F7"/>
<path d="M89.9355 66.543H113.373" stroke="#4364F7" stroke-width="7.49999" stroke-linecap="round" stroke-linejoin="round"/>
<path d="M89.9355 85.291H113.373" stroke="#4364F7" stroke-width="7.49999" stroke-linecap="round" stroke-linejoin="round"/>
<path d="M54.8389 85.2987C62.6054 85.2987 68.9014 79.0028 68.9014 71.2363C68.9014 63.4698 62.6054 57.1738 54.8389 57.1738C47.0724 57.1738 40.7764 63.4698 40.7764 71.2363C40.7764 79.0028 47.0724 85.2987 54.8389 85.2987Z" stroke="#4364F7" stroke-width="7.49999" stroke-linecap="round" stroke-linejoin="round"/>
<path d="M36.6826 99.3532C37.723 95.3283 40.071 91.7631 43.3579 89.2178C46.6447 86.6724 50.684 85.2912 54.8412 85.291C58.9984 85.2909 63.0378 86.6719 66.3248 89.217C69.6118 91.7621 71.9601 95.3271 73.0007 99.3519" stroke="#4364F7" stroke-width="7.49999" stroke-linecap="round" stroke-linejoin="round"/>
<path d="M127.436 29.0469H24.3105C21.7217 29.0469 19.623 31.1455 19.623 33.7344V118.109C19.623 120.698 21.7217 122.797 24.3105 122.797H127.436C130.024 122.797 132.123 120.698 132.123 118.109V33.7344C132.123 31.1455 130.024 29.0469 127.436 29.0469Z" stroke="#4364F7" stroke-width="7.49999" stroke-linecap="round" stroke-linejoin="round"/>
</svg>
