<svg width="25" height="25" viewBox="0 0 25 25" fill="none" xmlns="http://www.w3.org/2000/svg">
<g clip-path="url(#clip0_3121_28908)">
<path d="M20.9692 4.83984C21.4997 4.83984 22.0084 5.05056 22.3835 5.42563C22.7585 5.8007 22.9692 6.30941 22.9692 6.83984V16.8398C22.9692 17.9498 22.0792 18.8398 20.9692 18.8398H24.9692V20.8398H0.969238V18.8398H4.96924C4.43881 18.8398 3.9301 18.6291 3.55502 18.2541C3.17995 17.879 2.96924 17.3703 2.96924 16.8398V6.83984C2.96924 5.72984 3.85924 4.83984 4.96924 4.83984H20.9692ZM20.9692 6.83984H4.96924V16.8398H20.9692V6.83984ZM12.9692 12.8398C15.1792 12.8398 16.9692 13.7398 16.9692 14.8398V15.8398H8.96924V14.8398C8.96924 13.7398 10.7592 12.8398 12.9692 12.8398ZM12.9692 7.83984C13.4997 7.83984 14.0084 8.05056 14.3835 8.42563C14.7585 8.8007 14.9692 9.30941 14.9692 9.83984C14.9692 10.3703 14.7585 10.879 14.3835 11.2541C14.0084 11.6291 13.4997 11.8398 12.9692 11.8398C11.8592 11.8398 10.9692 10.9498 10.9692 9.83984C10.9692 8.72984 11.8692 7.83984 12.9692 7.83984Z" fill="#4364F7"/>
</g>
<defs>
<clipPath id="clip0_3121_28908">
<rect width="24" height="24" fill="white" transform="translate(0.969238 0.839844)"/>
</clipPath>
</defs>
</svg>
