<svg width="151" height="151" viewBox="0 0 151 151" fill="none" xmlns="http://www.w3.org/2000/svg">
<path opacity="0.2" d="M127.328 29.0332H24.2031C22.9599 29.0332 21.7677 29.5271 20.8886 30.4062C20.0095 31.2852 19.5156 32.4775 19.5156 33.7207V127.471L38.2656 118.096L57.0156 127.471L75.7656 118.096L94.5156 127.471L113.266 118.096L132.016 127.471V33.7207C132.016 32.4775 131.522 31.2852 130.643 30.4062C129.764 29.5271 128.571 29.0332 127.328 29.0332V29.0332ZM66.3906 94.6582H38.2656V57.1582H66.3906V94.6582Z" fill="#4364F7"/>
<path d="M19.5156 127.471V33.7207C19.5156 32.4775 20.0095 31.2852 20.8886 30.4061C21.7676 29.5271 22.9599 29.0332 24.2031 29.0332H127.328C128.571 29.0332 129.764 29.5271 130.643 30.4061C131.522 31.2852 132.016 32.4775 132.016 33.7207V127.471L113.266 118.096L94.5156 127.471L75.7656 118.096L57.0156 127.471L38.2656 118.096L19.5156 127.471Z" stroke="#4364F7" stroke-width="7.5" stroke-linecap="round" stroke-linejoin="round"/>
<path d="M85.1406 66.5332H113.266" stroke="#4364F7" stroke-width="7.5" stroke-linecap="round" stroke-linejoin="round"/>
<path d="M85.1406 85.2832H113.266" stroke="#4364F7" stroke-width="7.5" stroke-linecap="round" stroke-linejoin="round"/>
<path d="M66.3906 57.1582H38.2656V94.6582H66.3906V57.1582Z" stroke="#4364F7" stroke-width="7.5" stroke-linecap="round" stroke-linejoin="round"/>
</svg>
