<svg width="39" height="39" viewBox="0 0 39 39" fill="none" xmlns="http://www.w3.org/2000/svg">
<path fill-rule="evenodd" clip-rule="evenodd" d="M19.0449 37.5C21.4087 37.5 23.7494 37.0344 25.9332 36.1298C28.1171 35.2253 30.1014 33.8994 31.7728 32.2279C33.4443 30.5565 34.7702 28.5722 35.6748 26.3883C36.5793 24.2044 37.0449 21.8638 37.0449 19.5C37.0449 17.1362 36.5793 14.7956 35.6748 12.6117C34.7702 10.4278 33.4443 8.44353 31.7728 6.77208C30.1014 5.10062 28.1171 3.77475 25.9332 2.87017C23.7494 1.96558 21.4087 1.5 19.0449 1.5C14.271 1.5 9.69265 3.39642 6.317 6.77208C2.94135 10.1477 1.04492 14.7261 1.04492 19.5C1.04492 24.2739 2.94135 28.8523 6.317 32.2279C9.69265 35.6036 14.271 37.5 19.0449 37.5ZM14.5189 11.236L27.4669 17.712C27.7992 17.8781 28.0787 18.1334 28.274 18.4494C28.4693 18.7654 28.5728 19.1295 28.5728 19.501C28.5728 19.8725 28.4693 20.2366 28.274 20.5526C28.0787 20.8686 27.7992 21.1239 27.4669 21.29L14.5189 27.764C14.1529 27.9472 13.7461 28.0337 13.3372 28.0153C12.9283 27.9969 12.5309 27.8743 12.1828 27.659C11.8346 27.4438 11.5473 27.1431 11.3482 26.7855C11.149 26.4279 11.0446 26.0253 11.0449 25.616V13.386C11.0446 12.9767 11.149 12.5741 11.3482 12.2165C11.5473 11.8589 11.8346 11.5582 12.1828 11.343C12.5309 11.1277 12.9283 11.0051 13.3372 10.9867C13.7461 10.9683 14.1529 11.0528 14.5189 11.236Z" fill="#4364F7" fill-opacity="0.25"/>
<path d="M27.4669 17.7121L14.5189 11.2361C14.1529 11.053 13.7461 10.9665 13.3372 10.9848C12.9283 11.0032 12.5309 11.1259 12.1828 11.3411C11.8346 11.5564 11.5473 11.8571 11.3482 12.2147C11.149 12.5723 11.0446 12.9748 11.0449 13.3841V25.6161C11.0446 26.0254 11.149 26.428 11.3482 26.7856C11.5473 27.1432 11.8346 27.4439 12.1828 27.6592C12.5309 27.8744 12.9283 27.9971 13.3372 28.0154C13.7461 28.0338 14.1529 27.9473 14.5189 27.7641L27.4669 21.2881C27.7987 21.1219 28.0776 20.8666 28.2726 20.5508C28.4675 20.235 28.5708 19.8712 28.5708 19.5001C28.5708 19.129 28.4675 18.7653 28.2726 18.4495C28.0776 18.1337 27.7987 17.8784 27.4669 17.7121Z" stroke="#4364F7" stroke-width="2" stroke-linecap="round" stroke-linejoin="round"/>
<path d="M19.0449 37.5C28.986 37.5 37.0449 29.4411 37.0449 19.5C37.0449 9.55887 28.986 1.5 19.0449 1.5C9.1038 1.5 1.04492 9.55887 1.04492 19.5C1.04492 29.4411 9.1038 37.5 19.0449 37.5Z" stroke="#4364F7" stroke-width="2"/>
</svg>
