<svg width="151" height="151" viewBox="0 0 151 151" fill="none" xmlns="http://www.w3.org/2000/svg">
<path opacity="0.2" d="M75.877 19.168C64.7518 19.168 53.8764 22.467 44.6262 28.6478C35.3759 34.8286 28.1662 43.6136 23.9088 53.8919C19.6513 64.1702 18.5374 75.4802 20.7078 86.3916C22.8782 97.303 28.2355 107.326 36.1022 115.192C43.9689 123.059 53.9917 128.416 64.9032 130.587C75.8146 132.757 87.1246 131.643 97.4029 127.386C107.681 123.128 116.466 115.919 122.647 106.669C128.828 97.4183 132.127 86.5429 132.127 75.4178C132.127 68.0309 130.672 60.7164 127.845 53.8919C125.018 47.0673 120.875 40.8664 115.652 35.6431C110.428 30.4198 104.228 26.2765 97.4029 23.4497C90.5784 20.6229 83.2638 19.1679 75.877 19.168ZM66.502 94.1677V56.6678L94.627 75.4178L66.502 94.1677Z" fill="#4364F7"/>
<path d="M75.877 131.668C106.943 131.668 132.127 106.484 132.127 75.4178C132.127 44.3519 106.943 19.168 75.877 19.168C44.8109 19.168 19.627 44.3519 19.627 75.4178C19.627 106.484 44.8109 131.668 75.877 131.668Z" stroke="#4364F7" stroke-width="7.49999" stroke-miterlimit="10"/>
<path d="M94.627 75.4238L66.502 56.6738V94.1737L94.627 75.4238Z" stroke="#4364F7" stroke-width="7.49999" stroke-linecap="round" stroke-linejoin="round"/>
</svg>
