<svg width="72" height="72" viewBox="0 0 72 72" fill="none" xmlns="http://www.w3.org/2000/svg">
<rect width="72" height="72" rx="36" fill="white"/>
<path d="M44.3889 35.3609L30.8911 27.112C30.7774 27.0425 30.6473 27.0046 30.514 27.0021C30.3808 26.9996 30.2493 27.0326 30.1331 27.0978C30.0169 27.163 29.9202 27.2579 29.8528 27.3729C29.7855 27.4879 29.75 27.6187 29.75 27.752V44.2498C29.75 44.3831 29.7855 44.5139 29.8528 44.6289C29.9202 44.7438 30.0169 44.8388 30.1331 44.904C30.2493 44.9691 30.3808 45.0022 30.514 44.9997C30.6473 44.9972 30.7774 44.9593 30.8911 44.8898L44.3889 36.6408C44.4985 36.5738 44.5891 36.4798 44.652 36.3678C44.7148 36.2557 44.7478 36.1294 44.7478 36.0009C44.7478 35.8724 44.7148 35.7461 44.652 35.634C44.5891 35.522 44.4985 35.4279 44.3889 35.3609Z" fill="#4364F7"/>
</svg>
