<svg width="43" height="43" viewBox="0 0 43 43" fill="none" xmlns="http://www.w3.org/2000/svg">
<path opacity="0.2" d="M18.708 24.125H7.55176C7.20366 24.125 6.86982 23.9867 6.62368 23.7406C6.37754 23.4944 6.23926 23.1606 6.23926 22.8125V12.3125C6.23926 11.9644 6.37754 11.6306 6.62368 11.3844C6.86982 11.1383 7.20366 11 7.55176 11H17.3955C17.7436 11 18.0774 11.1383 18.3236 11.3844C18.5697 11.6306 18.708 11.9644 18.708 12.3125V24.125Z" fill="#4364F7"/>
<path opacity="0.2" d="M37.7393 24.125H26.583C26.2349 24.125 25.9011 23.9867 25.6549 23.7406C25.4088 23.4944 25.2705 23.1606 25.2705 22.8125V12.3125C25.2705 11.9644 25.4088 11.6306 25.6549 11.3844C25.9011 11.1383 26.2349 11 26.583 11H36.4268C36.7749 11 37.1087 11.1383 37.3548 11.3844C37.601 11.6306 37.7393 11.9644 37.7393 12.3125V24.125Z" fill="#4364F7"/>
<path d="M18.708 24.125H7.55176C7.20366 24.125 6.86982 23.9867 6.62368 23.7406C6.37754 23.4944 6.23926 23.1606 6.23926 22.8125V12.3125C6.23926 11.9644 6.37754 11.6306 6.62368 11.3844C6.86982 11.1383 7.20366 11 7.55176 11H17.3955C17.7436 11 18.0774 11.1383 18.3236 11.3844C18.5697 11.6306 18.708 11.9644 18.708 12.3125V26.75C18.708 28.4905 18.0166 30.1597 16.7859 31.3904C15.5552 32.6211 13.886 33.3125 12.1455 33.3125" stroke="#4364F7" stroke-width="2.25" stroke-linecap="round" stroke-linejoin="round"/>
<path d="M37.7393 24.125H26.583C26.2349 24.125 25.9011 23.9867 25.6549 23.7406C25.4088 23.4944 25.2705 23.1606 25.2705 22.8125V12.3125C25.2705 11.9644 25.4088 11.6306 25.6549 11.3844C25.9011 11.1383 26.2349 11 26.583 11H36.4268C36.7749 11 37.1087 11.1383 37.3548 11.3844C37.601 11.6306 37.7393 11.9644 37.7393 12.3125V26.75C37.7393 28.4905 37.0479 30.1597 35.8171 31.3904C34.5864 32.6211 32.9172 33.3125 31.1768 33.3125" stroke="#4364F7" stroke-width="2.25" stroke-linecap="round" stroke-linejoin="round"/>
</svg>
