<svg width="25" height="24" viewBox="0 0 25 24" fill="none" xmlns="http://www.w3.org/2000/svg">
<g clip-path="url(#clip0_2490_23195)">
<path fill-rule="evenodd" clip-rule="evenodd" d="M0.5 9.20228C0.753136 6.78664 1.85199 4.53821 3.60239 2.85431C5.3528 1.17041 7.64208 0.159427 10.0657 0C10.0071 0.0473783 9.95366 0.100818 9.90629 0.159429C7.8016 2.7474 6.48691 5.88683 6.11943 9.20228H0.5ZM6.76057 15.2743C6.76057 15.3497 6.764 15.4251 6.76914 15.4989V19.7777C5.06383 19.0638 3.58199 17.9042 2.47899 16.4205C1.37598 14.9369 0.692433 13.1838 0.5 11.3451H6.11943C6.24457 12.4766 6.47943 13.5909 6.82229 14.6691C6.78138 14.8677 6.7607 15.0716 6.76057 15.2743ZM8.27771 11.3486H11.2777L8.56914 12.5211C8.53979 12.5338 8.51064 12.547 8.48171 12.5606C8.39681 12.1589 8.32818 11.754 8.276 11.3469L8.27771 11.3486ZM20.9806 9.20571H15.3543C14.9883 5.88864 13.6741 2.74731 11.5691 0.157714C11.5211 0.0996214 11.4671 0.0467574 11.408 0C13.8329 0.15787 16.1238 1.16816 17.8756 2.85221C19.6274 4.53625 20.7272 6.78554 20.9806 9.20228V9.20571ZM8.27771 9.20571H13.1977C12.9001 6.85493 12.0577 4.60611 10.7377 2.63829C9.41795 4.6056 8.5756 6.85553 8.27771 9.20571ZM17.0429 11.5029C16.9254 11.452 16.7988 11.4258 16.6709 11.4258C16.5429 11.4258 16.4163 11.452 16.2989 11.5029L9.48629 14.4549C9.41545 14.4854 9.34866 14.5245 9.28743 14.5714C9.10578 14.6731 8.95456 14.8213 8.84939 15.001C8.74421 15.1806 8.68889 15.385 8.68914 15.5931V20.784C8.68914 21.0943 8.81241 21.3919 9.03183 21.6113C9.25124 21.8307 9.54884 21.954 9.85914 21.954C10.1694 21.954 10.467 21.8307 10.6865 21.6113C10.9059 21.3919 11.0291 21.0943 11.0291 20.784V16.8411L16.2989 19.1229C16.5371 19.2257 16.8063 19.2257 17.0429 19.1229L23.8554 16.1726C24.0229 16.1 24.1656 15.98 24.2658 15.8274C24.3659 15.6748 24.4193 15.4963 24.4193 15.3137C24.4193 15.1312 24.3659 14.9526 24.2658 14.8C24.1656 14.6474 24.0229 14.5274 23.8554 14.4549L17.0429 11.5029ZM12.0149 19.2343L15.4846 20.7377C15.8588 20.8998 16.2622 20.9834 16.67 20.9834C17.0778 20.9834 17.4812 20.8998 17.8554 20.7377L21.3251 19.2343V21.5623C21.3251 21.768 21.26 21.9669 21.1366 22.128L20.3909 21.5623L21.1349 22.1297L21.1331 22.1331L21.1297 22.1366L21.1229 22.1469L21.1023 22.1726C21.0138 22.2784 20.9193 22.3791 20.8194 22.4743C20.6309 22.6526 20.3566 22.8806 19.9914 23.1051C19.2526 23.5577 18.1554 23.9863 16.6709 23.9863C15.1863 23.9863 14.0891 23.5577 13.352 23.1034C12.9658 22.867 12.6139 22.5786 12.3063 22.2463C12.2847 22.2215 12.2635 22.1964 12.2429 22.1709L12.2223 22.1451L12.2154 22.1349L12.212 22.1314V22.128H12.2086C12.0861 21.9655 12.0199 21.7675 12.02 21.564L12.0131 19.2326L12.0149 19.2343Z" fill="black"/>
</g>
<defs>
<clipPath id="clip0_2490_23195">
<rect width="24" height="24" fill="white" transform="translate(0.5)"/>
</clipPath>
</defs>
</svg>
